<?xml version="1.0" standalone="no"?>
<!DOCTYPE svg PUBLIC "-//W3C//DTD SVG 20010904//EN"
 "http://www.w3.org/TR/2001/REC-SVG-20010904/DTD/svg10.dtd">
<svg version="1.0" xmlns="http://www.w3.org/2000/svg"
 width="225.000000pt" height="225.000000pt" viewBox="0 0 225.000000 225.000000"
 preserveAspectRatio="xMidYMid meet">

<g transform="translate(0.000000,225.000000) scale(0.100000,-0.100000)"
fill="#000000" stroke="none">
<path d="M498 1826 c-59 -16 -94 -39 -118 -79 -19 -30 -20 -52 -20 -335 0
-360 0 -361 97 -409 l58 -28 528 -3 527 -3 0 -134 0 -135 -605 0 -605 0 0
-150 0 -150 670 0 c445 0 686 4 720 11 63 13 104 47 125 102 14 36 15 86 13
349 -3 346 -2 340 -84 382 -38 20 -55 21 -586 24 l-548 3 0 134 0 135 610 0
610 0 0 150 0 150 -672 -1 c-506 0 -685 -3 -720 -13z"/>
</g>
</svg>
